<?xml version="1.0" encoding="UTF-8" standalone="no"?>
<svg
   xmlns:dc="http://purl.org/dc/elements/1.1/"
   xmlns:cc="http://creativecommons.org/ns#"
   xmlns:rdf="http://www.w3.org/1999/02/22-rdf-syntax-ns#"
   xmlns:svg="http://www.w3.org/2000/svg"
   xmlns="http://www.w3.org/2000/svg"
   xmlns:sodipodi="http://sodipodi.sourceforge.net/DTD/sodipodi-0.dtd"
   xmlns:inkscape="http://www.inkscape.org/namespaces/inkscape"
   sodipodi:docname="logo svg.svg"
   inkscape:version="1.0 (4035a4fb49, 2020-05-01)"
   id="svg8"
   version="1.1"
   viewBox="0 0 210 297"
   height="297mm"
   width="210mm">
  <defs
     id="defs2" />
  <sodipodi:namedview
     inkscape:window-maximized="1"
     inkscape:window-y="-8"
     inkscape:window-x="-8"
     inkscape:window-height="1017"
     inkscape:window-width="1920"
     showgrid="false"
     inkscape:document-rotation="0"
     inkscape:current-layer="layer1"
     inkscape:document-units="mm"
     inkscape:cy="142.60487"
     inkscape:cx="647.06328"
     inkscape:zoom="0.68149425"
     inkscape:pageshadow="2"
     inkscape:pageopacity="0.0"
     borderopacity="1.0"
     bordercolor="#666666"
     pagecolor="#ffffff"
     id="base" />
  <metadata
     id="metadata5">
    <rdf:RDF>
      <cc:Work
         rdf:about="">
        <dc:format>image/svg+xml</dc:format>
        <dc:type
           rdf:resource="http://purl.org/dc/dcmitype/StillImage" />
        <dc:title></dc:title>
      </cc:Work>
    </rdf:RDF>
  </metadata>
  <g
     id="layer1"
     inkscape:groupmode="layer"
     inkscape:label="Ebene 1">
    <g
       id="g20"
       transform="matrix(0.35277777,0,0,0.35277777,-68.02168,-85.460029)">
      <path
         id="path22"
         style="fill:#000000;fill-opacity:1;fill-rule:nonzero;stroke:none"
         d="m 193.547,179.313 c -1.899,-0.653 -2.914,-1.563 -3.77,-3.368 l -0.75,-1.586 -0.078,-8.101 -0.078,-8.098 h 2.164 l 0.078,7.738 0.075,7.739 0.628,1.343 c 0.922,1.969 1.836,2.461 4.801,2.579 2.703,0.109 3.828,-0.172 4.957,-1.243 1.426,-1.351 1.571,-2.273 1.676,-10.656 l 0.094,-7.5 h 2.121 v 6.297 c -0.004,7.109 -0.223,9.699 -0.973,11.445 -0.691,1.602 -2.238,3.004 -3.847,3.481 -1.766,0.523 -5.489,0.488 -7.098,-0.07 z m 174.039,0.121 c -3.481,-1.149 -5.594,-3.387 -6.691,-7.098 -0.477,-1.606 -0.512,-5.422 -0.063,-7.098 1.328,-4.965 5.379,-7.843 10.535,-7.492 4.856,0.332 8.36,3.793 9.113,8.992 0.758,5.274 -1.449,10.106 -5.535,12.117 -1.41,0.696 -1.816,0.782 -3.984,0.836 -1.52,0.039 -2.77,-0.054 -3.375,-0.257 z m 5.937,-2.313 c 1.536,-0.574 3.309,-2.285 4,-3.855 0.801,-1.809 1.098,-4.27 0.77,-6.278 -0.367,-2.215 -0.941,-3.492 -2.172,-4.824 -1.226,-1.336 -2.988,-2.117 -5.101,-2.273 -5.18,-0.375 -8.645,3.617 -8.29,9.547 0.243,4.074 1.954,6.675 5.145,7.816 1.391,0.492 4.145,0.43 5.648,-0.133 z m 174.731,2.301 c -4.34,-1.41 -7.027,-5.504 -7.027,-10.703 0,-6.836 4.507,-11.414 10.8,-10.973 2.516,0.176 4.289,0.906 5.957,2.453 2.34,2.164 3.407,4.793 3.399,8.391 -0.008,4.918 -2.039,8.551 -5.758,10.301 -1.363,0.644 -1.855,0.742 -3.957,0.797 -1.547,0.042 -2.762,-0.051 -3.414,-0.266 z m 6.785,-2.668 c 2.43,-1.246 3.816,-3.641 4.117,-7.121 0.352,-4.067 -1.457,-7.774 -4.468,-9.164 -1.622,-0.746 -4.942,-0.719 -6.672,0.058 -2.555,1.149 -4.227,3.797 -4.536,7.176 -0.386,4.274 1.583,8.145 4.786,9.406 1.933,0.758 4.894,0.606 6.773,-0.355 z m -454.543,2.57 c -0.074,-0.121 1.672,-4.906 3.883,-10.633 l 4.019,-10.414 h 2.793 l 4.168,10.203 c 2.297,5.61 4.176,10.395 4.18,10.633 0.008,0.367 -0.164,0.422 -1.129,0.36 l -1.137,-0.075 -1.242,-3.238 -1.246,-3.242 -4.894,-0.063 -4.899,-0.066 -1.191,3.305 -1.196,3.304 -0.988,0.075 c -0.543,0.039 -1.047,-0.028 -1.121,-0.149 z m 13.207,-9.226 c -0.18,-0.43 -1.125,-2.692 -2.101,-5.024 -0.977,-2.336 -1.848,-4.172 -1.942,-4.082 -0.09,0.09 -1.023,2.352 -2.074,5.028 l -1.91,4.859 h 8.355 z m 168.723,9.261 c -0.086,-0.089 -0.16,-4.461 -0.16,-9.722 v -9.559 h -7.2 v -1.918 h 16.559 v 1.906 l -7.078,0.133 -0.125,19.321 h -0.918 c -0.504,0 -0.988,-0.075 -1.078,-0.161 z m 168.48,0 c -0.086,-0.089 -0.16,-4.894 -0.16,-10.679 v -10.52 h 2.832 l 3.524,8.82 c 1.937,4.848 3.601,8.899 3.695,8.997 0.094,0.097 1.793,-3.844 3.777,-8.758 l 3.61,-8.942 1.359,-0.07 1.363,-0.074 v 21.414 l -2.039,-0.149 -0.121,-8.199 -0.121,-8.203 -2.742,6.762 c -1.512,3.719 -3.051,7.441 -3.418,8.273 l -0.672,1.516 -0.988,-0.074 -0.985,-0.075 -3.297,-8.101 c -1.812,-4.453 -3.367,-8.172 -3.457,-8.258 -0.086,-0.09 -0.16,3.582 -0.16,8.16 v 8.321 h -0.918 c -0.508,0 -0.992,-0.075 -1.082,-0.161 z M 631.945,168.84 v -10.68 h 4.981 c 2.738,0 5.371,0.11 5.847,0.242 2.344,0.653 3.563,2.313 3.571,4.864 0.004,1.875 -0.422,3.082 -1.469,4.164 l -0.723,0.75 0.555,0.14 c 1.258,0.325 2.414,1.907 2.715,3.719 0.453,2.723 -0.602,5.203 -2.699,6.344 -1.594,0.871 -3.563,1.133 -8.516,1.133 l -4.262,0.004 z m 11.094,7.867 c 1.649,-0.75 2.156,-1.676 2.051,-3.758 -0.074,-1.5 -0.152,-1.707 -0.844,-2.328 -1.094,-0.976 -2.25,-1.203 -6.492,-1.254 l -3.766,-0.047 -0.07,3.707 c -0.035,2.043 -0.008,3.864 0.062,4.047 0.106,0.274 0.852,0.317 4.028,0.242 3.351,-0.082 4.058,-0.168 5.031,-0.609 z m -0.652,-10.047 c 1.328,-0.66 1.851,-1.488 1.871,-2.957 0.023,-1.476 -0.508,-2.328 -1.887,-3.019 -0.816,-0.407 -1.449,-0.473 -4.664,-0.481 l -3.719,-0.004 -0.07,3.227 c -0.035,1.777 -0.008,3.383 0.066,3.574 0.215,0.559 7.157,0.277 8.403,-0.34 z m 76.441,2.192 V 158.16 h 2.164 l -0.062,10.617 -0.063,10.621 -1.019,0.075 -1.024,0.074 z m 74.16,-0.012 v -10.68 h 2.157 v 19.199 h 10.562 v 2.161 h -12.719 z m 83.039,0.004 V 158.16 h 15.118 v 1.918 h -12.957 v 7.199 h 12 v 2.161 h -12 v 7.921 h 13.464 l -0.07,1.02 -0.074,1.019 -7.742,0.063 -7.739,0.062 z M 6.336,107.184 C 3.918,106.395 2.043,104.773 0.828,102.426 -1.211,98.488 0.695,85.441 4.555,76.891 12.648,58.965 29.445,46.895 48.746,45.133 c 1.887,-0.172 42.379,-0.254 127.68,-0.258 110.906,0 125.094,-0.043 126.469,-0.367 2.511,-0.594 4.496,-1.711 6.394,-3.598 7.113,-7.078 4.481,-18.609 -5.082,-22.25 L 302.785,18.117 158.188,18 13.586,17.879 12.219,17.324 C 10.406,16.594 8.695,15.016 7.699,13.152 6.988,11.824 6.875,11.375 6.793,9.48 6.715,7.684 6.789,7.082 7.23,5.918 8.352,2.934 11.004,0.77 14.172,0.246 15.297,0.059 56.871,0.008 159.625,0.063 c 133.383,0.07 144.023,0.105 145.809,0.476 3.98,0.832 7.179,2.039 10.355,3.918 15.703,9.281 20.215,30.082 9.75,44.922 -4.527,6.418 -10.898,10.691 -18.953,12.711 -1.531,0.383 -9.926,0.418 -129.078,0.539 -122.543,0.129 -127.528,0.148 -129.723,0.574 -1.254,0.242 -3.465,0.824 -4.918,1.289 -12.738,4.09 -22.082,14.746 -24.469,27.906 -0.203,1.122 -0.464,3.528 -0.578,5.344 -0.191,2.988 -0.281,3.449 -0.961,4.828 -1.472,2.993 -4.207,4.746 -7.593,4.871 -1.172,0.047 -2.313,-0.054 -2.93,-0.257 z m 329.09,0.011 c -1.781,-0.59 -2.918,-1.324 -4.145,-2.664 -1.824,-1.996 -2.215,-3.265 -2.211,-7.16 0.028,-17.48 9.883,-34.848 25.145,-44.316 6.109,-3.789 12.875,-6.309 20.453,-7.614 2.402,-0.414 8.363,-0.441 129.719,-0.558 106.281,-0.106 127.359,-0.18 128.16,-0.453 2.988,-1.016 5.543,-2.856 7.219,-5.207 1.636,-2.293 2.297,-4.243 2.441,-7.235 0.109,-2.168 0.051,-2.679 -0.5,-4.441 -1.305,-4.184 -4.039,-7.086 -8.254,-8.777 L 631.828,18.117 487.102,18 342.375,17.879 340.781,17.094 c -3.293,-1.621 -5.035,-4.453 -5.039,-8.18 -0.004,-1.82 0.074,-2.168 0.86,-3.75 1.023,-2.078 2.242,-3.254 4.433,-4.293 l 1.59,-0.754 h 144.723 c 137.941,0 144.824,0.02 146.988,0.43 6.578,1.242 11.879,4.07 16.707,8.91 5.395,5.406 8.16,11.246 8.996,18.981 1.274,11.855 -4.738,23.625 -15.32,29.98 l -1.508,0.902 2.059,2.164 c 9.308,9.782 14.683,22.723 14.835,35.715 0.04,3.449 0.036,3.492 -0.722,5.086 -0.934,1.977 -2.414,3.496 -4.293,4.41 -1.277,0.621 -1.668,0.692 -3.824,0.692 -2.137,0 -2.551,-0.074 -3.77,-0.668 -3.539,-1.723 -5.23,-4.844 -5.23,-9.66 0,-0.954 -0.211,-2.961 -0.465,-4.465 -1.231,-7.18 -4.633,-13.797 -9.801,-19.035 -5.488,-5.563 -11.793,-8.864 -19.848,-10.383 -2.019,-0.383 -9.89,-0.414 -115.445,-0.485 -78.922,-0.05 -114.227,0.004 -116.402,0.184 -9.215,0.758 -16.379,4.035 -22.817,10.438 -6.711,6.675 -10.058,14.32 -10.648,24.285 -0.18,3.058 -0.281,3.609 -0.875,4.824 -0.871,1.781 -2.633,3.527 -4.363,4.316 -1.641,0.754 -4.622,0.973 -6.176,0.457 z m 378.769,-0.043 c -22.289,-2.695 -40.66,-19.082 -45.875,-40.914 -0.328,-1.386 -0.765,-3.793 -0.968,-5.351 -0.422,-3.258 -0.485,-10.356 -0.118,-13.375 1.422,-11.774 6.512,-22.442 14.75,-30.922 3.223,-3.32 5.629,-5.344 9.004,-7.578 7.938,-5.254 16.453,-8.106 26.176,-8.77 4.727,-0.324 225.879,-0.324 230.606,0 1.902,0.129 4.441,0.403 5.64,0.606 16.977,2.89 31.653,13.91 39.274,29.5 3.679,7.519 5.336,14.824 5.343,23.531 0.004,5.23 -0.406,8.582 -1.644,13.441 -5.496,21.571 -24.324,37.696 -46.641,39.95 -4.012,0.402 -232.172,0.293 -235.547,-0.118 z M 950.969,89.09 c 15.203,-3.235 26.215,-14.504 28.781,-29.453 0.676,-3.953 0.52,-9.824 -0.363,-13.559 -1.106,-4.672 -2.848,-8.648 -5.524,-12.601 -1.914,-2.829 -6.351,-7.258 -9.222,-9.204 -2.852,-1.933 -6.95,-3.89 -10.071,-4.808 C 949.211,17.883 958.777,18 832.465,18 706.148,18 715.719,17.883 710.363,19.465 c -8.496,2.508 -16.433,8.781 -20.828,16.461 -2.359,4.121 -3.945,8.941 -4.558,13.851 -0.36,2.856 -0.188,7.797 0.371,10.676 0.953,4.922 3.504,10.711 6.465,14.672 3.144,4.211 8.234,8.473 12.953,10.844 3.554,1.785 8.933,3.265 13.222,3.629 0.528,0.047 52.582,0.074 115.68,0.062 l 114.719,-0.023 z" />
      <path
         id="path24"
         style="fill:#a52a2a;fill-opacity:1;fill-rule:nonzero;stroke:none"
         d="m 386.305,199.91 c -102.836,-0.226 -181.543,-0.57 -245.16,-1.078 -25.012,-0.203 -46.559,-0.391 -47.879,-0.418 -3.746,-0.086 103.125,-0.879 159.722,-1.187 67.828,-0.368 417.5,-0.368 485.157,0 54.707,0.296 162.199,1.097 159.242,1.183 -0.992,0.031 -22.914,0.219 -48.719,0.422 -64.488,0.508 -130.742,0.805 -213,0.957 -38.281,0.07 -90.23,0.172 -115.441,0.223 -25.211,0.051 -85.477,0.004 -133.922,-0.102 z m -0.719,-60.496 C 186.355,138.926 110.77,138.676 67.984,138.367 42.328,138.18 21.301,137.992 21.25,137.941 c -0.23,-0.23 149.008,-0.941 252.016,-1.199 146.414,-0.363 304.914,-0.363 452.039,0.004 102.488,0.254 250.929,0.961 250.699,1.195 -0.141,0.141 -90.977,0.739 -136.699,0.899 -66.828,0.234 -342.465,0.844 -361.918,0.797 -9.703,-0.02 -51.012,-0.121 -91.801,-0.223 z" />
    </g>
  </g>
</svg>
